<?xml version="1.0" encoding="utf-8"?>
<!-- Generator: Adobe Illustrator 16.0.1, SVG Export Plug-In . SVG Version: 6.00 Build 0)  -->
<!DOCTYPE svg PUBLIC "-//W3C//DTD SVG 1.1//EN" "http://www.w3.org/Graphics/SVG/1.1/DTD/svg11.dtd">
<svg version="1.1" id="Layer_1" xmlns="http://www.w3.org/2000/svg" xmlns:xlink="http://www.w3.org/1999/xlink" x="0px" y="0px"
	 width="499px" height="64px" viewBox="0 0 499 64" enable-background="new 0 0 499 64" xml:space="preserve">
<title>Page 1</title>
<desc>Created with Sketch.</desc>
<g>
	<defs>
		<rect id="SVGID_1_" x="0.147" y="0.103" width="498.705" height="63.795"/>
	</defs>
	<clipPath id="SVGID_2_">
		<use xlink:href="#SVGID_1_"  overflow="visible"/>
	</clipPath>
	<path clip-path="url(#SVGID_2_)" fill="#FFFFFF" d="M219.298,47.331c-0.744,6.844-2.529,6.546-4.612,7.142
		c-1.934,0.446-1.19,1.637,0,1.487c0.446,0,3.868-0.445,6.249-0.445c3.273,0,6.248,0.297,7.736,0.297c0.595,0,1.488-0.893,0-1.339
		c-1.934-0.446-6.396,0-6.844-8.183c-0.297-5.952,0.148-26.334,0.148-26.334c0-1.488,0.149-1.637,0.446-1.637
		c0.446,0,0.894,0.744,1.339,1.339l28.417,36.153c2.976,3.57,3.124,2.381,3.124-1.041c-0.148-11.308,0.148-42.699,0.148-42.699
		c0.149-6.1,5.654-3.72,5.654-5.505c0-0.447-0.298-0.595-0.595-0.595c-1.638,0-6.249,0.445-8.481,0.445
		c-2.082,0-3.422-0.298-5.355-0.298c-0.446,0-0.744,0.149-0.744,0.744c0,1.934,7.143-1.339,6.993,8.927v29.607
		c0,0.595,0,1.636-1.042,0L222.125,7.905c-0.447-0.447-1.042-1.637-1.786-1.637c-1.041,0-4.314,0.298-5.207,0.298
		c-1.041,0-2.083-0.298-3.124-0.298c-0.298,0-1.042,0.298-1.042,0.744c0.447,2.528,8.184-0.446,8.332,11.157
		C219.446,17.873,219.596,44.355,219.298,47.331"/>
	<path clip-path="url(#SVGID_2_)" fill="#FFFFFF" d="M265.567,0.169c-0.893,0.298-2.38,1.487-2.976,1.784
		c-0.743,0.447-0.595,1.191-0.297,1.935c1.636,3.273,3.272,8.48-0.744,14.878c-0.744,1.042-1.785,1.339-1.19,1.786
		c0.596,0.446,2.529-0.894,3.273-1.637c4.463-4.464,6.1-11.902,3.57-17.259C266.608,0.614,266.461-0.13,265.567,0.169"/>
	<path clip-path="url(#SVGID_2_)" fill="#FFFFFF" d="M271.37,52.092c0.298,1.34,6.1,3.72,11.158,3.72
		c15.771,0,19.49-8.629,19.49-14.58c0-18.746-26.631-11.902-26.631-25.144c0-6.547,5.058-9.225,10.562-9.225
		c6.1,0,11.01,3.869,12.795,8.778c0.298,0.595,0.596,2.083,1.339,2.083c0.744,0,0.595-0.446,0.447-1.041l-1.042-9.82
		c0-0.744-0.446-1.041-0.893-1.041c-0.744,0-1.041,1.189-2.381,1.041c-0.893-0.148-2.678-2.083-9.818-2.231
		c-8.034,0-14.729,4.909-14.729,13.836c0,17.854,25.888,11.011,26.036,24.103c0,7.438-4.611,11.307-11.307,11.307
		c-9.522,0-13.838-7.438-14.582-10.712c-0.297-1.488-0.445-2.23-1.189-2.23c-0.744,0.147-0.595,0.892-0.297,2.38
		C270.181,43.165,271.072,46.29,271.37,52.092"/>
	<path clip-path="url(#SVGID_2_)" fill="#FFFFFF" d="M187.757,57.299c15.771,0,26.779-10.562,26.779-26.779
		c0-15.027-11.157-25.59-25.59-25.59c-14.58,0-26.035,10.86-26.035,26.035C162.911,46.142,172.433,57.299,187.757,57.299
		 M187.161,7.756c13.836,0,22.168,12.35,22.168,25.441c0,13.39-8.629,21.573-19.043,21.573c-13.985,0-22.168-12.646-22.168-26.036
		C168.118,17.428,175.26,7.756,187.161,7.756"/>
	<path clip-path="url(#SVGID_2_)" fill="#FFFFFF" d="M145.652,30.222c4.464-1.934,8.629-6.396,8.629-12.051
		c0-13.688-14.877-12.944-15.77-12.944c-3.273,0-7.588,0.595-11.307,0.595c-3.273,0-4.612-0.445-5.803-0.445
		c-0.743,0-1.339,0.445-1.339,0.893c0,2.38,7.439-1.189,7.291,6.397v36.152c0,5.356-3.72,4.91-4.464,5.506
		c-0.297,0.298-0.744,1.189-0.297,1.189c2.38,0,5.207-0.297,7.587-0.297c5.356,0,8.629,0.297,9.076,0.446
		c0.892,0.298,1.339-0.894,0.297-1.339c-1.339-0.446-6.992,0.298-7.141-5.506V33.793c0-0.744-0.446-1.935,1.637-1.935
		c6.397-0.148,6.397-0.596,7.438,1.041c0,0,12.349,15.176,19.044,21.425c5.802,5.505,13.093,9.372,17.705,9.521
		c6.248,0.297,9.67-0.744,9.67-1.637c0-1.636-5.505,3.125-20.382-8.926C158.447,45.992,147.438,32.454,145.652,30.222
		C145.503,30.371,145.652,30.222,145.652,30.222 M132.411,10.137c0-2.827,1.488-2.529,3.868-2.529
		c6.249,0,12.646,3.124,12.646,11.753c0,8.778-6.695,10.117-9.521,10.117c-2.976,0-6.993,0.298-6.993-1.041V10.137z"/>
	<path clip-path="url(#SVGID_2_)" fill="#FFFFFF" d="M104.292,30.073c4.612-1.935,9.373-6.695,9.373-12.2
		c0-13.688-15.919-12.794-16.96-12.794c-3.422,0-7.291,0.595-11.01,0.595c-3.273,0-4.463-0.298-5.654-0.298
		c-0.743,0-1.339,0.445-1.339,0.893c0,1.935,7.142-1.189,6.993,6.397v36.152c0,5.506-3.868,5.356-5.207,5.356
		c-1.637,0,0.744,1.637,1.041,1.637c2.529,0,4.464-0.595,6.993-0.595c5.505,0,9.075,0.595,9.67,0.595
		c1.488,0.297,1.786-0.893,0.298-1.189c-2.381-0.596-7.588-0.447-7.588-6.398V33.94c0-0.742-0.446-1.934,1.637-1.934
		c7.29,0,6.844-0.297,9.075,3.571l8.183,12.497c2.529,4.017,5.059,7.736,9.819,7.736c0.596,0,5.059,0.149,5.059-0.744
		c0-0.893,0.893-1.339-1.042-1.041c-1.636,0.298-4.612-0.893-7.587-5.951L104.292,30.52
		C103.995,30.371,104.292,30.073,104.292,30.073 M91.051,10.137c0-2.827,1.339-2.529,3.719-2.678
		c6.844-0.298,13.093,2.976,13.093,11.604c0,8.778-6.249,10.414-9.076,10.414c-3.124,0-7.736,0.446-7.736-0.892V10.137z"/>
	<path clip-path="url(#SVGID_2_)" fill="#FFFFFF" d="M69.479,44.355c0.595,1.935,1.19,4.314,1.785,5.803
		c1.339,3.272-2.083,4.464-3.273,4.314c-1.042-0.148-0.744,1.785,1.041,1.488c1.786-0.298,4.017-0.596,5.803-0.596
		c2.678,0,4.909,0.596,7.587,0.596c0.447,0,1.786-1.191,0.595-1.488c-0.892-0.148-3.273-0.148-4.909-2.827
		c-1.488-2.528-2.529-5.505-3.422-8.183L60.551,5.822c-0.149-0.596-0.595-2.679-1.339-2.679c-0.893,0-1.042,1.191-4.91,10.415
		L38.682,50.753c-1.637,4.166-5.208,2.827-5.208,4.314c0,0.446,0.595,0.894,1.042,0.894c1.636,0,3.719-0.447,5.505-0.447
		c1.785,0,3.719,0,6.1,0.447c1.636,0.297,2.082-1.191,0.595-1.488c-1.786-0.445-4.613-1.339-4.315-4.463
		c0.595-4.314,4.315-11.903,4.315-11.903c0.595-1.487,2.231-2.083,3.421-2.083h14.432c1.785,0,2.232,0.744,2.827,2.382
		L69.479,44.355z M57.129,13.41c0.446-0.894,0.744-0.894,1.041,0l6.844,18.597c0.298,0.893,0.447,1.488-1.041,1.488H50.286
		c-0.892,0-1.339-0.298-0.892-1.339L57.129,13.41z"/>
	<path clip-path="url(#SVGID_2_)" fill="#FFFFFF" d="M5.949,47.629c0,5.505-2.38,6.248-3.124,6.397c-1.19,0.446-2.529,0-2.529,1.339
		c0,0.595,1.785,0.595,2.083,0.595c3.124,0,5.207-0.147,8.331-0.147c2.381,0,8.183,0.595,10.712,0.595
		c13.539,0,16.366-10.267,16.366-15.474c0-10.116-10.861-11.604-10.861-12.646c0-0.447,6.844-3.125,6.844-10.415
		c0-5.207-3.273-12.051-15.473-12.051c-5.505,0-6.695,0.595-9.373,0.595c-2.827,0-6.695-0.744-8.034-0.744
		c-0.893,0-1.19,0.894,0.298,1.488c1.339,0.595,4.909,0.298,4.909,5.654v34.813H5.949z M11.008,31.114
		c0-0.595-0.298-1.636,4.91-1.636c15.919,0,16.216,9.372,16.216,13.984c0,4.315-1.339,10.861-12.051,10.861
		c-9.819,0.148-9.224-1.935-9.224-6.993V31.114H11.008z M11.008,13.261c0-4.166-0.298-5.207,4.017-5.355
		c8.332-0.149,14.283,4.463,13.985,12.2c-0.149,4.166-2.827,7.735-11.902,7.588c-6.249-0.149-6.1-0.447-6.1-2.679V13.261z"/>
	<path clip-path="url(#SVGID_2_)" fill="#FFFFFF" d="M361.679,41.231v8.332c-0.744-1.191-2.083-3.274-3.273-5.06L331.03,5.524
		l-0.148-0.149h-3.273V55.96h3.57V18.617v-6.844c0.744,1.189,2.083,3.272,3.422,5.058l27.376,38.98l0.148,0.148h3.422V5.375h-3.57
		v35.856H361.679z"/>
	<polygon clip-path="url(#SVGID_2_)" fill="#FFFFFF" points="382.358,31.71 408.246,31.71 408.246,28.139 382.358,28.139 
		382.358,8.946 410.775,8.946 410.775,5.376 378.788,5.376 378.788,56.109 412.412,56.109 412.412,52.688 382.358,52.688 	"/>
	<polygon clip-path="url(#SVGID_2_)" fill="#FFFFFF" points="457.045,5.376 452.73,5.376 438.3,26.056 424.017,5.524 423.867,5.376 
		419.404,5.376 435.918,28.883 416.43,56.108 420.743,56.108 438.001,31.561 454.665,55.961 454.813,56.108 459.426,56.108 
		440.382,28.733 	"/>
	<polygon clip-path="url(#SVGID_2_)" fill="#FFFFFF" points="460.467,5.376 460.467,8.947 477.874,8.947 477.874,56.108 
		481.445,56.108 481.445,8.947 498.853,8.947 498.853,5.376 	"/>
</g>
</svg>
