<?xml version="1.0" encoding="utf-8"?>
<!-- Generator: Adobe Illustrator 19.0.0, SVG Export Plug-In . SVG Version: 6.00 Build 0)  -->
<svg version="1.1" id="Layer_1" xmlns="http://www.w3.org/2000/svg" xmlns:xlink="http://www.w3.org/1999/xlink" x="0px" y="0px"
	 viewBox="-582 729 498.6 64" style="enable-background:new -582 729 498.6 64;" xml:space="preserve">
<style type="text/css">
	.st0{fill:#FFFFFF;}
</style>
<g>
	<g>
		<g>
			<path class="st0" d="M-362.9,776.3c-0.7,6.8-2.5,6.5-4.6,7.1c-1.9,0.4-1.2,1.6,0,1.5c0.4,0,3.9-0.4,6.2-0.4
				c3.3,0,6.2,0.3,7.7,0.3c0.6,0,1.5-0.9,0-1.3c-1.9-0.4-6.4,0-6.8-8.2c-0.3-6,0.1-26.3,0.1-26.3c0-1.5,0.1-1.6,0.4-1.6
				c0.4,0,0.9,0.7,1.3,1.3l28.4,36.2c3,3.6,3.1,2.4,3.1-1c-0.1-11.3,0.1-42.7,0.1-42.7c0.1-6.1,5.7-3.7,5.7-5.5
				c0-0.4-0.3-0.6-0.6-0.6c-1.6,0-6.2,0.4-8.5,0.4c-2.1,0-3.4-0.3-5.4-0.3c-0.4,0-0.7,0.1-0.7,0.7c0,1.9,7.1-1.3,7,8.9v29.6
				c0,0.6,0,1.6-1,0l-29.8-37.5c-0.4-0.4-1-1.6-1.8-1.6c-1,0-4.3,0.3-5.2,0.3c-1,0-2.1-0.3-3.1-0.3c-0.3,0-1,0.3-1,0.7
				c0.4,2.5,8.2-0.4,8.3,11.2C-362.8,746.8-362.7,773.3-362.9,776.3z"/>
			<path class="st0" d="M-316.7,729.1c-0.9,0.3-2.4,1.5-3,1.8c-0.7,0.4-0.6,1.2-0.3,1.9c1.6,3.3,3.3,8.5-0.7,14.9
				c-0.7,1-1.8,1.3-1.2,1.8c0.6,0.4,2.5-0.9,3.3-1.6c4.5-4.5,6.1-11.9,3.6-17.3C-315.6,729.6-315.8,728.8-316.7,729.1z"/>
			<path class="st0" d="M-310.9,781.1c0.3,1.3,6.1,3.7,11.2,3.7c15.8,0,19.5-8.6,19.5-14.6c0-18.7-26.6-11.9-26.6-25.1
				c0-6.5,5.1-9.2,10.6-9.2c6.1,0,11,3.9,12.8,8.8c0.3,0.6,0.6,2.1,1.3,2.1s0.6-0.4,0.4-1l-1-9.8c0-0.7-0.4-1-0.9-1
				c-0.7,0-1,1.2-2.4,1c-0.9-0.1-2.7-2.1-9.8-2.2c-8,0-14.7,4.9-14.7,13.8c0,17.9,25.9,11,26,24.1c0,7.4-4.6,11.3-11.3,11.3
				c-9.5,0-13.8-7.4-14.6-10.7c-0.3-1.5-0.4-2.2-1.2-2.2c-0.7,0.1-0.6,0.9-0.3,2.4C-312.1,772.1-311.2,775.2-310.9,781.1z"/>
			<path class="st0" d="M-394.5,786.3c15.8,0,26.8-10.6,26.8-26.8c0-15-11.2-25.6-25.6-25.6c-14.6,0-26,10.9-26,26
				C-419.3,775.1-409.8,786.3-394.5,786.3z M-395.1,736.7c13.8,0,22.2,12.3,22.2,25.4c0,13.4-8.6,21.6-19,21.6
				c-14,0-22.2-12.6-22.2-26C-414.1,746.4-407,736.7-395.1,736.7z"/>
			<path class="st0" d="M-436.6,759.2c4.5-1.9,8.6-6.4,8.6-12.1c0-13.7-14.9-12.9-15.8-12.9c-3.3,0-7.6,0.6-11.3,0.6
				c-3.3,0-4.6-0.4-5.8-0.4c-0.7,0-1.3,0.4-1.3,0.9c0,2.4,7.4-1.2,7.3,6.4v36.2c0,5.4-3.7,4.9-4.5,5.5c-0.3,0.3-0.7,1.2-0.3,1.2
				c2.4,0,5.2-0.3,7.6-0.3c5.4,0,8.6,0.3,9.1,0.4c0.9,0.3,1.3-0.9,0.3-1.3c-1.3-0.4-7,0.3-7.1-5.5v-15c0-0.7-0.4-1.9,1.6-1.9
				c6.4-0.1,6.4-0.6,7.4,1c0,0,12.3,15.2,19,21.4c5.8,5.5,13.1,9.4,17.7,9.5c6.2,0.3,9.7-0.7,9.7-1.6c0-1.6-5.5,3.1-20.4-8.9
				C-423.8,775-434.8,761.4-436.6,759.2C-436.7,759.3-436.6,759.2-436.6,759.2z M-449.8,739.1c0-2.8,1.5-2.5,3.9-2.5
				c6.2,0,12.6,3.1,12.6,11.8c0,8.8-6.7,10.1-9.5,10.1c-3,0-7,0.3-7-1L-449.8,739.1z"/>
			<path class="st0" d="M-478,759c4.6-1.9,9.4-6.7,9.4-12.2c0-13.7-15.9-12.8-17-12.8c-3.4,0-7.3,0.6-11,0.6c-3.3,0-4.5-0.3-5.7-0.3
				c-0.7,0-1.3,0.4-1.3,0.9c0,1.9,7.1-1.2,7,6.4v36.2c0,5.5-3.9,5.4-5.2,5.4c-1.6,0,0.7,1.6,1,1.6c2.5,0,4.5-0.6,7-0.6
				c5.5,0,9.1,0.6,9.7,0.6c1.5,0.3,1.8-0.9,0.3-1.2c-2.4-0.6-7.6-0.4-7.6-6.4v-14.3c0-0.7-0.4-1.9,1.6-1.9c7.3,0,6.8-0.3,9.1,3.6
				l8.2,12.5c2.5,4,5.1,7.7,9.8,7.7c0.6,0,5.1,0.1,5.1-0.7c0-0.9,0.9-1.3-1-1c-1.6,0.3-4.6-0.9-7.6-6l-11.8-17.6
				C-478.3,759.3-478,759-478,759z M-491.2,739.1c0-2.8,1.3-2.5,3.7-2.7c6.8-0.3,13.1,3,13.1,11.6c0,8.8-6.2,10.4-9.1,10.4
				c-3.1,0-7.7,0.4-7.7-0.9V739.1z"/>
			<path class="st0" d="M-512.8,773.3c0.6,1.9,1.2,4.3,1.8,5.8c1.3,3.3-2.1,4.5-3.3,4.3c-1-0.1-0.7,1.8,1,1.5c1.8-0.3,4-0.6,5.8-0.6
				c2.7,0,4.9,0.6,7.6,0.6c0.4,0,1.8-1.2,0.6-1.5c-0.9-0.1-3.3-0.1-4.9-2.8c-1.5-2.5-2.5-5.5-3.4-8.2l-14.1-37.6
				c-0.1-0.6-0.6-2.7-1.3-2.7c-0.9,0-1,1.2-4.9,10.4l-15.6,37.2c-1.6,4.2-5.2,2.8-5.2,4.3c0,0.4,0.6,0.9,1,0.9
				c1.6,0,3.7-0.4,5.5-0.4c1.8,0,3.7,0,6.1,0.4c1.6,0.3,2.1-1.2,0.6-1.5c-1.8-0.4-4.6-1.3-4.3-4.5c0.6-4.3,4.3-11.9,4.3-11.9
				c0.6-1.5,2.2-2.1,3.4-2.1h14.4c1.8,0,2.2,0.7,2.8,2.4L-512.8,773.3z M-525.1,742.4c0.4-0.9,0.7-0.9,1,0l6.8,18.6
				c0.3,0.9,0.4,1.5-1,1.5H-532c-0.9,0-1.3-0.3-0.9-1.3L-525.1,742.4z"/>
			<path class="st0" d="M-576.3,776.6c0,5.5-2.4,6.2-3.1,6.4c-1.2,0.4-2.5,0-2.5,1.3c0,0.6,1.8,0.6,2.1,0.6c3.1,0,5.2-0.1,8.3-0.1
				c2.4,0,8.2,0.6,10.7,0.6c13.5,0,16.4-10.3,16.4-15.5c0-10.1-10.9-11.6-10.9-12.6c0-0.4,6.8-3.1,6.8-10.4
				c0-5.2-3.3-12.1-15.5-12.1c-5.5,0-6.7,0.6-9.4,0.6c-2.8,0-6.7-0.7-8-0.7c-0.9,0-1.2,0.9,0.3,1.5c1.3,0.6,4.9,0.3,4.9,5.7v34.8
				H-576.3z M-571.2,760.1c0-0.6-0.3-1.6,4.9-1.6c15.9,0,16.2,9.4,16.2,14c0,4.3-1.3,10.9-12.1,10.9c-9.8,0.1-9.2-1.9-9.2-7v-16.2
				H-571.2z M-571.2,742.2c0-4.2-0.3-5.2,4-5.4c8.3-0.1,14.3,4.5,14,12.2c-0.1,4.2-2.8,7.7-11.9,7.6c-6.2-0.1-6.1-0.4-6.1-2.7V742.2
				z"/>
		</g>
	</g>
	<g>
		<path class="st0" d="M-220.6,770.2c0,2.5,0,6.4,0,8.3c-0.7-1.2-2.1-3.3-3.3-5.1l-27.4-39l-0.1-0.1h-3.3v50.6h3.6v-37.3
			c0-2.8,0-5.5,0-6.8c0.7,1.2,2.1,3.3,3.4,5.1l27.4,39l0.1,0.1h3.4v-50.6h-3.6v35.9H-220.6z"/>
		<polygon class="st0" points="-199.9,760.7 -174,760.7 -174,757.1 -199.9,757.1 -199.9,737.9 -171.5,737.9 -171.5,734.3 
			-203.5,734.3 -203.5,785.1 -169.8,785.1 -169.8,781.6 -199.9,781.6 		"/>
		<polygon class="st0" points="-125.2,734.3 -129.5,734.3 -143.9,755 -158.2,734.5 -158.4,734.3 -162.8,734.3 -146.3,757.8 
			-165.8,785.1 -161.5,785.1 -144.2,760.5 -127.6,784.9 -127.4,785.1 -122.8,785.1 -141.9,757.7 		"/>
		<polygon class="st0" points="-121.8,734.3 -121.8,737.9 -104.4,737.9 -104.4,785.1 -100.8,785.1 -100.8,737.9 -83.4,737.9 
			-83.4,734.3 		"/>
	</g>
</g>
</svg>
