<?xml version="1.0" encoding="utf-8"?>
<!-- Generator: Adobe Illustrator 16.0.1, SVG Export Plug-In . SVG Version: 6.00 Build 0)  -->
<!DOCTYPE svg PUBLIC "-//W3C//DTD SVG 1.1//EN" "http://www.w3.org/Graphics/SVG/1.1/DTD/svg11.dtd">
<svg version="1.1" id="Layer_1" xmlns="http://www.w3.org/2000/svg" xmlns:xlink="http://www.w3.org/1999/xlink" x="0px" y="0px"
	 width="300px" height="64px" viewBox="0 0 300 64" enable-background="new 0 0 300 64" xml:space="preserve">
<title>Page 1</title>
<desc>Created with Sketch.</desc>
<g id="Symbols">
	<g id="Header-16u" transform="translate(-570.000000, -38.000000)">
		<g id="Page-1" transform="translate(570.000000, 38.000000)">
			<path id="Fill-1" fill="#F5F5F0" d="M217.809,46.871c-0.738,6.757-2.457,6.57-4.543,7.123c-1.889,0.498-1.168,1.656,0.061,1.474
				c0.455-0.067,3.832-0.429,6.14-0.429c3.233,0,6.167,0.305,7.749,0.305c0.66,0,1.525-0.918-0.073-1.35
				c-1.848-0.498-6.382,0-6.815-8.105c-0.314-5.93,0.211-26.206,0.211-26.206c0-1.416,0.199-1.63,0.461-1.63
				c0.459,0,0.941,0.799,1.388,1.347l28.213,35.881c2.978,3.479,3.163,2.435,3.103-1.065c-0.195-11.295,0.153-42.469,0.153-42.469
				c0.087-6.135,5.618-3.644,5.618-5.487c0-0.426-0.264-0.64-0.658-0.64c-1.584,0-6.14,0.494-8.382,0.494
				c-2.112,0-3.362-0.319-5.342-0.319c-0.394,0-0.731,0.214-0.726,0.711c0.03,1.989,7.125-1.291,6.879,8.841l0.07,29.353
				c0,0.566-0.037,1.683-0.988,0L220.787,7.487c-0.397-0.496-0.989-1.631-1.717-1.631c-0.988,0-4.258,0.258-5.246,0.258
				c-1.056,0-2.045-0.283-3.101-0.283c-0.329,0-1.051,0.286-0.989,0.708c0.37,2.483,8.105-0.462,8.23,11.143
				C217.965,17.682,218.125,43.957,217.809,46.871"/>
			<path id="Fill-3" fill="#F5F5F0" d="M263.771,0.057c-0.89,0.27-2.304,1.436-2.885,1.841c-0.669,0.469-0.654,1.244-0.312,1.905
				c1.661,3.193,3.305,8.463-0.796,14.8c-0.676,1.043-1.719,1.35-1.165,1.781c0.584,0.456,2.466-0.821,3.251-1.598
				c4.424-4.361,6.02-11.79,3.502-17.194C264.855,0.493,264.646-0.209,263.771,0.057"/>
			<path id="Fill-5" fill="#F5F5F0" d="M269.545,51.639c0.273,1.267,6.027,3.746,11.122,3.746c15.635,0,19.333-8.526,19.333-14.432
				c0-18.667-26.529-11.835-26.529-25.056c0-6.465,4.999-9.209,10.44-9.209c6.063,0,10.956,3.903,12.745,8.682
				c0.23,0.622,0.529,2.028,1.285,2.028c0.691,0,0.53-0.507,0.465-1.07l-0.987-9.823c-0.067-0.775-0.41-0.985-0.826-0.985
				c-0.688,0-1.106,1.253-2.394,1.007c-0.948-0.18-2.611-2.11-9.733-2.172c-7.923-0.068-14.675,4.826-14.675,13.755
				c0,17.685,25.788,10.929,25.914,23.949c0.064,7.381-4.637,11.175-11.182,11.175c-9.502,0-13.694-7.367-14.519-10.6
				c-0.347-1.477-0.494-2.271-1.231-2.149c-0.679,0.114-0.612,0.904-0.336,2.31C268.438,42.795,269.328,45.828,269.545,51.639"/>
			<path id="Fill-7" fill="#F5F5F0" d="M186.46,56.797c15.685,0,26.589-10.43,26.589-26.611c0-14.89-11.043-25.461-25.392-25.461
				c-14.422,0-25.819,10.859-25.819,25.821C161.838,45.72,171.191,56.797,186.46,56.797 M185.938,7.572
				c13.717,0,21.977,12.257,21.977,25.346c0,13.309-8.633,21.447-18.904,21.447c-13.93,0-22.035-12.602-22.035-25.905
				C166.975,17.095,174.119,7.572,185.938,7.572"/>
			<g id="Group-11" transform="translate(119.000000, 4.605800)">
				<g id="Clip-10">
				</g>
				<defs>
					<filter id="Adobe_OpacityMaskFilter" filterUnits="userSpaceOnUse" x="0.222" y="0.412" width="67.484" height="58.587">
						<feColorMatrix  type="matrix" values="1 0 0 0 0  0 1 0 0 0  0 0 1 0 0  0 0 0 1 0"/>
					</filter>
				</defs>
				<mask maskUnits="userSpaceOnUse" x="0.222" y="0.412" width="67.484" height="58.587" id="mask-2">
					<g filter="url(#Adobe_OpacityMaskFilter)">
						<polygon id="path-1" fill="#FFFFFF" points="0.222,59 67.706,59 67.706,0.412 0.222,0.412 						"/>
					</g>
				</mask>
				<path id="Fill-9" mask="url(#mask-2)" fill="#F5F5F0" d="M25.666,25.258c4.455-1.976,8.636-6.43,8.636-11.938
					c0-13.63-14.71-12.901-15.729-12.901c-3.312,0-7.604,0.636-11.3,0.636c-3.246,0-4.63-0.373-5.776-0.373
					c-0.765,0-1.275,0.424-1.275,0.848c0,2.401,7.368-1.167,7.181,6.376v35.947c0,5.365-3.712,4.923-4.509,5.535
					c-0.335,0.259-0.69,1.229-0.308,1.229c2.419,0,5.134-0.305,7.554-0.305c5.286,0,8.526,0.263,9.077,0.419
					c0.931,0.256,1.36-0.911,0.316-1.28c-1.276-0.449-7,0.309-7.099-5.527v-14.9c0-0.708-0.38-1.944,1.657-1.978
					c6.42-0.103,6.298-0.592,7.402,1.065c0,0,12.253,15.036,18.917,21.31c5.822,5.483,13.013,9.299,17.656,9.527
					c6.264,0.303,9.64-0.751,9.64-1.6c0-1.693-5.466,3.072-20.323-8.842c-8.971-7.189-20.006-20.662-21.717-22.879
					C25.527,25.451,25.68,25.285,25.666,25.258L25.666,25.258z M12.441,5.277c0-2.755,1.509-2.46,3.802-2.46
					c6.243,0,12.531,3.115,12.531,11.731c0,8.758-6.659,10.096-9.397,10.096c-2.993,0-6.943,0.353-6.943-0.988L12.441,5.277z"/>
			</g>
			<path id="Fill-12" fill="#F5F5F0" d="M103.522,29.772c4.551-1.977,9.313-6.583,9.313-12.091c0-13.631-15.784-12.65-16.827-12.65
				c-3.381,0-7.218,0.63-10.991,0.63c-3.317,0-4.384-0.362-5.555-0.362c-0.78,0-1.306,0.424-1.301,0.848
				c0.01,1.976,7.103-1.178,6.988,6.364v35.948c0.022,5.535-3.846,5.352-5.196,5.352c-1.578,0,0.707,1.566,1.097,1.566
				c2.471,0,4.413-0.646,6.885-0.646c5.398,0,9.033,0.567,9.61,0.665c1.505,0.254,1.782-0.877,0.337-1.217
				c-2.333-0.553-7.553-0.492-7.583-6.349l-0.012-14.202c0-0.707-0.39-1.978,1.691-1.978c7.284,0,6.726-0.365,9.067,3.591
				l8.071,12.475c2.473,4.025,5.008,7.627,9.756,7.627c0.586,0,5.056,0.09,5.015-0.758c-0.042-0.858,0.83-1.328-1.075-1.021
				c-1.558,0.253-4.536-0.868-7.581-5.918l-11.739-17.443C103.308,30.079,103.522,29.772,103.522,29.772L103.522,29.772z
				 M90.417,9.974c0-2.753,1.368-2.507,3.708-2.613c6.799-0.305,12.939,2.931,12.939,11.546c0,8.757-6.168,10.316-8.964,10.316
				c-3.059,0-7.676,0.422-7.676-0.92L90.417,9.974z"/>
			<path id="Fill-14" fill="#F5F5F0" d="M69,43.996c0.651,1.958,1.207,4.222,1.803,5.699c1.29,3.197-2.025,4.361-3.314,4.238
				c-1.044-0.099-0.8,1.779,1.055,1.444c1.731-0.313,3.937-0.522,5.699-0.522c2.671,0,4.921,0.522,7.594,0.522
				c0.454,0,1.799-1.138,0.634-1.444c-0.826-0.217-3.315-0.186-4.821-2.85c-1.448-2.566-2.461-5.482-3.439-8.165L60.204,5.564
				c-0.195-0.58-0.651-2.682-1.368-2.682c-0.846,0-1.041,1.16-4.885,10.296l-15.572,36.98c-1.696,4.134-5.186,2.781-5.186,4.304
				c0,0.437,0.624,0.916,1.018,0.916c1.692,0,3.639-0.46,5.397-0.46c1.825,0,3.651,0.07,6.05,0.466
				c1.627,0.267,2.005-1.12,0.584-1.45c-1.842-0.43-4.606-1.268-4.216-4.429c0.531-4.291,4.307-11.808,4.307-11.808
				c0.653-1.521,2.176-2.025,3.412-2.025h14.336c1.823,0,2.182,0.708,2.835,2.377L69,43.996z M56.687,13.178
				c0.39-0.87,0.716-0.87,1.042,0l6.779,18.463c0.326,0.945,0.392,1.452-1.043,1.452H49.833c-0.846,0-1.304-0.29-0.846-1.304
				L56.687,13.178z"/>
			<path id="Fill-16" fill="#F5F5F0" d="M5.848,47.232c0,5.504-2.355,6.156-3.113,6.371c-1.237,0.422-2.578,0.063-2.458,1.287
				c0.065,0.633,1.718,0.526,2.061,0.526c3.166,0,5.155-0.156,8.319-0.156c2.338,0,8.148,0.615,10.622,0.615
				c13.411,0,16.257-10.136,16.274-15.419c0.03-10.042-10.807-11.526-10.807-12.584c0-0.493,6.754-3.178,6.754-10.376
				c0-5.224-3.308-12.043-15.412-12.043c-5.501,0-6.614,0.522-9.366,0.522c-2.75,0-6.606-0.676-7.981-0.676
				c-0.826,0-1.228,0.92,0.245,1.536c1.303,0.543,4.862,0.31,4.862,5.674V47.232z M10.789,30.822c0-0.636-0.344-1.625,4.952-1.625
				c15.817,0,16.092,9.356,16.092,13.872c0,4.232-1.375,10.742-11.936,10.865c-9.764,0.112-9.108-1.904-9.108-6.986V30.822z
				 M10.789,13.075c0-4.094-0.342-5.205,3.989-5.295c8.283-0.171,14.133,4.453,13.964,12.072c-0.094,4.14-2.825,7.736-11.884,7.592
				c-6.187-0.1-6.069-0.466-6.069-2.727V13.075z"/>
		</g>
	</g>
</g>
</svg>
