<?xml version="1.0" encoding="utf-8"?>
<!-- Generator: Adobe Illustrator 19.0.0, SVG Export Plug-In . SVG Version: 6.00 Build 0)  -->
<svg version="1.1" id="Layer_1" xmlns="http://www.w3.org/2000/svg" xmlns:xlink="http://www.w3.org/1999/xlink" x="0px" y="0px"
	 viewBox="0 0 833.8 60.5" style="enable-background:new 0 0 833.8 60.5;" xml:space="preserve">
<g>
	<path d="M531.4,34.9v-1.2h-26.2v1.2c1.5,0.1,6.7,0.4,9,1.2c2.1,0.7,2.7,2.8,2.7,5.2v4.5c0,5.5-4.8,11.2-15,11.2
		c-10.6,0-19.6-11-19.6-25.6c0-18.3,9.3-28,18.9-28c12.1,0,18.9,10.2,21.1,17.6h1.1l-0.5-19.4h-1.4L519,6.6c-4-2.7-9.2-4.9-16.3-4.9
		c-14.4,0-28.1,13.6-28.1,30c0,17.5,13.2,27.4,23.7,27.4c7,0,13.8-1.9,19.6-4l4.2,4.9l0.8-0.2V40.3c0-1.8,0.5-3.3,2.4-4.3
		C526.9,35.3,530,35.1,531.4,34.9 M586.6,42.6h-1.1c-0.6,2.3-5,9.5-7,11.7c-1.5,1.7-8.3,2.2-13,2.2c-9,0-9.7-0.6-9.7-7.4V8.7
		c0-1.8,0.5-3.4,2.5-4c1.5-0.5,4.5-1.1,5.9-1.1v-1h-23.1v1c1.5,0.1,4.1,0.9,5.6,1.5c2,0.9,2.5,2.3,2.5,4.1v42.9c0,1.8-0.6,3.3-2.5,4
		c-1.1,0.4-4.1,0.7-5.6,0.8v1h44.1L586.6,42.6z M651.9,29.9c0-7.6-2.8-15.4-7.4-20c-6.3-6.2-12.9-8.5-20.2-8.5
		c-7.2,0-14.2,2.8-19.4,8c-4.9,5-8.1,12.1-8.1,21.5c0,8.7,3.2,15.5,8.3,20.5c5.2,5,11.7,7.8,18.9,7.8c8.2,0,14.7-2.8,19.8-7.9
		C649.7,45.3,651.9,38.1,651.9,29.9 M644.3,30.1c0,16-6.9,27.4-19.9,27.4c-13,0-19.9-11.5-19.9-26.5c0-18.4,8.3-28,19.9-28
		C636,3,644.3,12.6,644.3,30.1 M709.9,43.4c0-11.3-12.1-14.6-16.8-15.1v-0.4c7.8-2.3,13.9-5.1,13.9-14.1c0-8.6-8.8-11.3-13.9-11.3
		h-26.9v1c1.5,0.1,3.6,0.6,5.3,1.3c1.9,0.8,2.5,2.3,2.5,4.1v43.2c0,1.8-0.6,3.1-2.5,3.8c-1.1,0.4-4.4,1-5.8,1.1v1h28.1
		C698.3,57.9,709.9,53.3,709.9,43.4 M699.1,14.7c0,7-2.9,13.1-12.1,13.1h-6.3V4.1c2.3-0.1,6.3-0.2,7.9-0.2
		C693.1,3.9,699.1,5.9,699.1,14.7 M701.8,41.5c0,6.3-1.9,15-13,15c-5.3,0-7.5-1.2-8.1-5.7v-21c1.8-0.1,6.6-0.2,8.3-0.2
		C697.2,29.5,701.8,35.3,701.8,41.5 M775.8,57.9v-1c-1.5-0.1-3.6-0.5-5.1-1.4c-1.9-1.1-2.7-2.4-3.3-4c-3-7.5-11.3-29.1-19.5-49.8
		h-1.1c-6.1,15.4-13.3,33.5-19,47.4c-1.2,3-3.3,5.3-5.2,6.3c-1.5,0.9-4,1.5-5.5,1.5v1h22.3v-1c-3.6-0.2-9.6-1.5-9.6-4.4
		c0-1.1,0.4-2.7,1-4.5c0.7-2.6,1.9-5.7,3.8-10.4h20.4l5.7,14.2c0.2,0.6,0.3,1.4,0.3,1.9c0,2-5.7,2.9-8.5,3.1v1H775.8z M754.2,35.9
		h-19.1l9.6-24.4L754.2,35.9z M829.9,42.6h-1.1c-0.6,2.3-5,9.5-7,11.7c-1.5,1.7-8.3,2.2-13,2.2c-9,0-9.7-0.6-9.7-7.4V8.7
		c0-1.8,0.5-3.4,2.5-4c1.5-0.5,4.5-1.1,5.9-1.1v-1h-23.1v1c1.5,0.1,4.1,0.9,5.6,1.5c2,0.9,2.5,2.3,2.5,4.1v42.9c0,1.8-0.6,3.3-2.5,4
		c-1.1,0.4-4.1,0.7-5.6,0.8v1h44.1L829.9,42.6z"/>
	<path d="M1.1,57.8h24V56c-1.5-0.2-6.7-1.5-8.1-2.6c-1.9-1.5-2.8-4.8-2.8-11V13.1l0.1-3l14.7,35.5c1.3,2.9,3.3,8.7,4.1,11.3h2.5
		L55.7,8.5v42.2c0,1.9-0.7,3.2-2.6,4.1c-1.1,0.6-5.3,1-6.8,1.1v1.8h28.6V56c-1.5-0.2-5.1-0.8-6-1.3c-1.9-0.9-2.5-2.2-2.5-4V9.3
		c0-1.8,0.5-3.3,2.5-4c1.5-0.5,4.5-1,5.9-1.1V2.5H54c-0.1,0.9-0.6,4-1.8,6.9L38.9,41.5l-16.5-39H1.5v1.8C3.7,4.4,6.8,5,8.7,6.5
		c1.6,1.3,2.4,3.4,2.4,6.7v29.5c0,6.2-0.7,9.7-2.6,11.1c-1.9,1.4-6.1,1.9-7.4,2.1V57.8z M98.4,38.5h18.7l4.8,12.5
		c0.2,0.6,0.3,1.2,0.3,1.8c0,2-5.3,3-8,3.2v1.8h27.4V56c-1.5-0.2-3.7-0.6-5.2-1.5c-1.9-1.1-2.6-2.3-3.2-3.9
		c-2.3-5.7-12.7-33.2-19-49h-4.5c-4.6,11.7-14.1,36.1-18.4,46.6c-1.1,2.8-2.5,5.1-4.5,6.3c-1.5,0.9-4,1.4-5.4,1.5v1.8h22V56
		c-2.8-0.2-9-1.5-9-4.4c0-1.1,0.3-2.8,1-4.8C95.6,46.2,96.8,42.9,98.4,38.5 M99.5,35.6c2.4-6.5,5.5-14.7,8.1-21.4l8.4,21.4H99.5z
		 M194.7,58.2h4.1V17.3c0-5.7,0.6-9.6,2.6-10.9c1.6-1.1,6.1-1.9,7.4-2.1V2.5h-23.8v1.8c1.6,0.2,6.5,1.5,7.9,2.5
		c1.8,1.3,2.8,5,2.8,11v24.9L164.1,2.5h-18.2v1.9c2.6,0.4,6.3,2,8.2,3.6c1.7,1.5,2.5,4,2.5,6.4v28.3c0,6.2-0.7,9.7-2.6,11.1
		c-1.4,1-6.1,2-7.4,2.2v1.8h23.9V56c-1.5-0.2-6.6-1.5-7.9-2.6c-1.8-1.5-2.7-4.9-2.7-11.1V13.7L194.7,58.2z M237.9,58.9
		c11.4,0,19.4-7.2,19.4-17.1c0-8.6-4.3-12.2-10.9-15.1c-3.2-1.4-7-2.5-10.8-4.2c-5.2-2.3-7.9-5.2-7.9-10c0-5.6,4.2-8.6,8.3-8.6
		c8.4,0,13.2,6.5,16.8,16.6h1.9l-0.3-18.8h-2.8l-2.4,3.5c-2.8-1.9-7.8-3.9-12.8-3.9c-10.5,0-17.4,7-17.4,15.6c0,7,3.2,12.1,9.7,15
		c3.6,1.5,7,2.7,11,4.2c5.4,2,8.3,5.3,8.3,10.2c0,5.8-3.5,10-10.2,10c-9.4,0-15.2-9.1-18.4-17.4h-1.9l0.5,19.6h2.8l2.7-3.7
		C226.1,56.5,230.5,58.9,237.9,58.9 M269.1,57.8h27.4V56c-1.5-0.2-4.9-0.9-5.9-1.3c-1.8-0.8-2.4-2.1-2.4-3.9V9.3
		c0-1.8,0.5-3.2,2.4-3.9c1.5-0.5,4.5-1,5.9-1.1V2.5h-27.4v1.8c1.5,0.2,4.4,1,5.8,1.5c1.9,0.8,2.5,2.1,2.5,3.9v41.5
		c0,1.8-0.6,3.2-2.5,3.9c-1.1,0.4-4.4,0.8-5.8,0.9V57.8z M336.5,59.1c8.4,0,15-2.7,20.2-7.5c5.9-5.5,8.7-13.2,8.7-21.9
		c0-8.6-3.2-15.9-8.3-20.7c-5.7-5.4-12.7-7.9-20.3-7.9c-7.8,0-14.7,2.8-20.2,7.9c-5.4,5.2-8.5,12.5-8.5,21.7
		c0,8.8,3.3,15.8,8.6,20.7C322,56.4,328.9,59.1,336.5,59.1 M336.8,56.5c-11.5,0-16.4-12-16.4-26.2c0-16.5,6-26.6,16.4-26.6
		C349,3.7,353.1,17,353.1,30C353.1,44.8,348.2,56.5,336.8,56.5 M423.2,58.2h4.1V17.3c0-5.7,0.7-9.6,2.6-10.9
		c1.6-1.1,6.1-1.9,7.5-2.1V2.5h-23.8v1.8c1.6,0.2,6.5,1.5,7.9,2.5c1.8,1.3,2.8,5,2.8,11v24.9L392.6,2.5h-18.2v1.9
		c2.6,0.4,6.3,2,8.2,3.6c1.7,1.5,2.5,4,2.5,6.4v28.3c0,6.2-0.7,9.7-2.6,11.1c-1.4,1-6.1,2-7.5,2.2v1.8h23.9V56
		c-1.5-0.2-6.6-1.5-7.9-2.6c-1.8-1.5-2.8-4.9-2.8-11.1V13.7L423.2,58.2z"/>
</g>
</svg>
