<svg id="Layer_1" data-name="Layer 1" xmlns="http://www.w3.org/2000/svg" xmlns:xlink="http://www.w3.org/1999/xlink" viewBox="0 0 263.22 86.74"><defs><style>.cls-1,.cls-2{fill:none;}.cls-1,.cls-3{clip-rule:evenodd;}.cls-10,.cls-12,.cls-3{fill:#231f20;}.cls-4{clip-path:url(#clip-path);}.cls-5{clip-path:url(#clip-path-2);}.cls-6{fill:#af9e65;}.cls-7{clip-path:url(#clip-path-3);}.cls-8{clip-path:url(#clip-path-5);}.cls-9{clip-path:url(#clip-path-7);}.cls-10{fill-rule:evenodd;}.cls-11{clip-path:url(#clip-path-9);}.cls-13{clip-path:url(#clip-path-11);}.cls-14{clip-path:url(#clip-path-13);}</style><clipPath id="clip-path" transform="translate(6.84 11.37)"><path class="cls-1" d="M154.08,21.4h-2v10h1.85c3.51,0,5.46-1.63,5.46-5.15,0-3.26-1.81-4.89-5.32-4.89"/></clipPath><clipPath id="clip-path-2" transform="translate(6.84 11.37)"><rect class="cls-2" x="-1087.64" y="-674.94" width="1364.53" height="768.69"/></clipPath><clipPath id="clip-path-3" transform="translate(6.84 11.37)"><path class="cls-1" d="M184.21,21.4h-2.54v9.94h2.45c3.42,0,5.36-1.78,5.36-5.05s-1.85-4.89-5.27-4.89"/></clipPath><clipPath id="clip-path-5" transform="translate(6.84 11.37)"><path class="cls-1" d="M217.88,21c-4.57,0-7.3,4.3-7.3,11.08s2.73,11.09,7.3,11.09,7.31-4.3,7.31-11.09S222.51,21,217.88,21"/></clipPath><clipPath id="clip-path-7" transform="translate(6.84 11.37)"><path class="cls-1" d="M132.41,63.82H245V.36H132.41Zm21.81-26h-2V49.16h-7.91V15h10.27c7.77,0,12.53,3.71,12.53,11.14C167.07,33.87,161.94,37.83,154.22,37.83Zm36.31,11.33L183.7,37.43h-2V49.16h-7.86V15H185c7.72,0,12.25,3.76,12.25,10.79,0,4.75-2.22,8-6,9.7l8.49,13.66Zm27.31.64c-9.16,0-15.17-7.12-15.17-17.66s6-17.77,15.26-17.77S233.15,21.49,233.15,32,227.13,49.8,217.84,49.8Z"/></clipPath><clipPath id="clip-path-9" transform="translate(6.84 11.37)"><path class="cls-3" d="M74.24,2.39C80.59,2.39,83,10.93,84,21.3H85.7V.37H84.64c-.44,2-1.23,2.94-2.38,2.94-2,0-3.08-3.31-7.93-3.31-7.49,0-12.6,6.52-12.6,15.06,0,15.52,19.83,22,19.83,36.36,0,6.52-2.91,10.19-6.88,10.19-5.9,0-9.78-7.25-10.84-18.91H62.17V63.63h1.06c.88-3,2-3.3,3-3.3,1.68,0,3.44,3.67,8.55,3.67,7.84,0,13.84-7.07,13.84-16.8,0-18.83-19.83-23.79-19.83-37.47,0-2.93,1.06-7.34,5.46-7.34"/></clipPath><clipPath id="clip-path-11" transform="translate(6.84 11.37)"><path class="cls-3" d="M47.53,2l1.85.37c2.65.55,3.26,2.2,2,9L45,44.34,38.45,9.46c-.7-3.58-1.14-6.52,1.77-7.07L42.16,2V.37h-17V2l1.14.28c1.77.45,2,1.56,2.74,5.05l1.66,8.35L25.53,44.08,18.8,9.46C18,5.69,17.74,2.85,20.56,2.3L21.89,2V.37H4.53V2l1.67.46c1.59.46,2.47,1.29,3.53,6.33l11.19,55h3.61l7.61-41.94,8.34,41.94h3.17L54.41,10.56C55.55,5,56.17,3,58.28,2.48L60,2V.37H47.53V2"/></clipPath><clipPath id="clip-path-13" transform="translate(6.84 11.37)"><path class="cls-3" d="M102.82.37V2l2.2.55c1.76.46,2.73,1.1,2.73,3.77V50.5c0,6.15-.53,11.11-4.93,11.11-2.82,0-4.94-2.29-4.85-4,.26-2.84,4.85-2.66,5.2-7.25.27-3.31-1.76-4.68-3.61-5-2.73-.37-6.08,2-6.17,6.8C93.3,58.4,97.18,64,103.79,64c7.31,0,12.95-5.14,12.95-15V6.43c0-2.57.62-3.4,2.38-3.86L121.06,2V.37H102.82"/></clipPath></defs><title>WSJPro_Logo-dark</title><g class="cls-4"><g class="cls-5"><rect class="cls-6" x="147.56" y="21.4" width="30.05" height="32.79"/></g></g><g class="cls-7"><g class="cls-5"><rect class="cls-6" x="177.14" y="21.4" width="30.56" height="32.69"/></g></g><g class="cls-8"><g class="cls-5"><rect class="cls-6" x="206.05" y="21" width="37.36" height="44.92"/></g></g><g class="cls-9"><g class="cls-5"><rect class="cls-6" x="127.88" y="0.36" width="135.34" height="86.2"/></g></g><path class="cls-10" d="M74.24,2.39C80.59,2.39,83,10.93,84,21.3H85.7V.37H84.64c-.44,2-1.23,2.94-2.38,2.94-2,0-3.08-3.31-7.93-3.31-7.49,0-12.6,6.52-12.6,15.06,0,15.52,19.83,22,19.83,36.36,0,6.52-2.91,10.19-6.88,10.19-5.9,0-9.78-7.25-10.84-18.91H62.17V63.63h1.06c.88-3,2-3.3,3-3.3,1.68,0,3.44,3.67,8.55,3.67,7.84,0,13.84-7.07,13.84-16.8,0-18.83-19.83-23.79-19.83-37.47,0-2.93,1.06-7.34,5.46-7.34" transform="translate(6.84 11.37)"/><g class="cls-11"><g class="cls-5"><rect class="cls-12" x="57.2" width="49.62" height="86.74"/></g></g><path class="cls-10" d="M47.53,2l1.85.37c2.65.55,3.26,2.2,2,9L45,44.34,38.45,9.46c-.7-3.58-1.14-6.52,1.77-7.07L42.16,2V.37h-17V2l1.14.28c1.77.45,2,1.56,2.74,5.05l1.66,8.35L25.53,44.08,18.8,9.46C18,5.69,17.74,2.85,20.56,2.3L21.89,2V.37H4.53V2l1.67.46c1.59.46,2.47,1.29,3.53,6.33l11.19,55h3.61l7.61-41.94,8.34,41.94h3.17L54.41,10.56C55.55,5,56.17,3,58.28,2.48L60,2V.37H47.53V2" transform="translate(6.84 11.37)"/><g class="cls-13"><g class="cls-5"><rect class="cls-12" y="0.37" width="78.17" height="86.19"/></g></g><path class="cls-10" d="M102.82.37V2l2.2.55c1.76.46,2.73,1.1,2.73,3.77V50.5c0,6.15-.53,11.11-4.93,11.11-2.82,0-4.94-2.29-4.85-4,.26-2.84,4.85-2.66,5.2-7.25.27-3.31-1.76-4.68-3.61-5-2.73-.37-6.08,2-6.17,6.8C93.3,58.4,97.18,64,103.79,64c7.31,0,12.95-5.14,12.95-15V6.43c0-2.57.62-3.4,2.38-3.86L121.06,2V.37H102.82" transform="translate(6.84 11.37)"/><g class="cls-14"><g class="cls-5"><rect class="cls-12" x="88.86" y="0.37" width="50.41" height="86.37"/></g></g></svg>