<svg xmlns="http://www.w3.org/2000/svg" viewBox="0 0 275.9 33.3" enable-background="new 0 0 275.9 33.3"><style type="text/css">.st0{fill:#FFFFFF;} .st1{fill:#02A3D5;}</style><g id="graphics"><path class="st0" d="M88.8 27.5V5.9h8.9c5.6 0 8.9 3.2 8.9 8v5.6c0 4.8-3.2 8-8.9 8h-8.9zm13.3-13.6c0-2.5-1.9-3.9-4.4-3.9h-4.4v13.4h4.4c2.5 0 4.4-1.4 4.4-3.9v-5.6zM120.5 27.8c-5.6 0-8.9-3.2-8.9-8v-6.2c0-4.8 3.2-8 8.9-8 5.6 0 8.9 3.2 8.9 8v6.2c-.1 4.8-3.3 8-8.9 8zm4.3-14.2c0-2.5-1.9-3.9-4.4-3.9-2.5 0-4.4 1.4-4.4 3.9v6.2c0 2.5 1.9 3.9 4.4 3.9 2.5 0 4.4-1.4 4.4-3.9v-6.2zM146.6 15.4l-3.8 12.1h-4.9l-4.3-21.6h4.5l2.7 14.6 4.4-14.6h2.8l4.4 14.6 2.7-14.6h4.5l-4.3 21.6h-4.9l-3.8-12.1zM183.4 5.9h4.5v15.4c0 4.3-2.6 6.5-7 6.5s-7-2.2-7-6.5h4.5c.1 1.5 1 2.4 2.5 2.4 1.7 0 2.5-1.1 2.5-2.5V5.9zM202.2 27.8c-5.6 0-8.9-3.2-8.9-8v-6.2c0-4.8 3.2-8 8.9-8 5.6 0 8.9 3.2 8.9 8v6.2c0 4.8-3.2 8-8.9 8zm4.4-14.2c0-2.5-1.9-3.9-4.4-3.9-2.5 0-4.4 1.4-4.4 3.9v6.2c0 2.5 1.9 3.9 4.4 3.9 2.5 0 4.4-1.4 4.4-3.9v-6.2zM234.3 27.5h-4.5l-8.7-13.9v13.9h-4.5V5.9h4.5l8.7 13.9V5.9h4.5v21.6zM244.8 14.5h8.8v4.1h-8.8v4.8h9.8v4.1h-14.3V5.9h14.3V10h-9.8v4.5zM259.3 20.7h4.6c.3 1.8 1.8 3 4.1 3 2 0 3.4-.7 3.4-2.2 0-1.2-.8-1.9-2.4-2.3l-4-1c-3.6-.9-5.4-3.2-5.4-6.4 0-4.3 3.7-6.3 7.8-6.3 4.7 0 7.6 2.5 8.1 6.2h-4.6c-.4-1.5-2-2.1-3.6-2.1-1.9 0-3.2.7-3.2 2.2 0 1.3 1.1 1.8 2.4 2.1l3.8 1c3.6.9 5.6 2.9 5.6 6.6 0 3.9-2.8 6.3-7.9 6.3-5.1 0-8.4-2.8-8.7-7.1zM22.2 11.1c-.1-.7-.1-1-.2-1.5-.7-2.4-2.9-4.1-5.5-4.1h-11v22.2h5.6v5.6H0V0h16.6c5.6 0 10.2 4.1 11 9.5.1.5.1 1.1.1 1.7l-5.5-.1zM27.7 15.3v6.9c0 6.2-5.2 11.2-11.3 11.2h-1.2v-5.6h1.1c3.1 0 5.8-2.6 5.8-5.7v-6.8h5.6z"/><path class="st1" d="M57 0h2.5v33.3H57z"/></g></svg>