<svg xmlns="http://www.w3.org/2000/svg" width="200" height="114.639" viewBox="0 0 200 114.639"><g enable-background="new"><path d="M8.06 15.786C5.92 6.083 5.427 4.438 2.302 3.616L0 2.957V.655h29.113V2.96l-2.468.493c-5.264 1.15-4.77 6.416-3.29 13.486l12.993 64.475 9.54-51.316-3.454-17.6c-1.314-6.25-1.81-8.226-5.1-9.046l-2.138-.494V.657h30.098V2.96l-3.62.657c-5.426.986-4.603 6.905-3.288 13.32l12.5 64.477 12.335-61.02c2.304-12.665 1.153-15.79-3.78-16.776l-3.455-.657V.66h20.89v2.3l-2.303.823c-3.29 1.15-4.112 4.276-6.415 15.133L68.092 114.64h-4.277l-15.46-74.672-13.98 74.67h-5.428L8.06 15.787zM123.19 114.637c-9.538 0-12.827-6.578-15.952-6.578-1.81 0-3.947.493-5.592 5.92h-1.974v-37.5h2.468c1.973 21.22 9.867 34.54 20.89 34.54 7.4 0 12.5-6.744 12.5-18.914 0-25.657-36.68-36.68-36.68-65.133C98.853 11.678 106.583 0 120.563 0c9.045 0 10.854 5.92 14.64 5.92 2.138 0 3.618-1.645 4.44-5.263h1.973v37.5h-2.47c-1.973-18.915-6.907-34.54-18.75-34.54-8.223 0-9.702 8.224-9.702 13.816 0 24.506 36.678 32.894 36.678 67.104 0 17.436-9.54 30.1-24.18 30.1zM191.94 87.826c0 17.6-8.882 26.81-22.534 26.81-12.338 0-19.572-10.03-19.408-21.05.166-8.553 6.414-12.83 11.514-12.172 3.62.492 7.236 3.125 6.744 8.88-.494 8.224-9.377 7.896-9.705 12.993-.327 3.127 3.784 7.73 9.048 7.73 9.21 0 9.21-11.677 9.21-20.56v-79.77c0-4.603-1.478-5.92-5.1-6.742l-4.11-.986V.654H200V2.96l-3.62.985c-3.29.822-4.44 2.303-4.44 6.906v76.976z"/></g></svg>